<svg width="1920" height="1080" viewBox="0 0 1920 1080" fill="none" xmlns="http://www.w3.org/2000/svg">
<rect opacity="0.6" y="-3.05176e-05" width="1" height="1080" fill="#D9D9D9"/>
<rect opacity="0.6" x="36" y="-3.05176e-05" width="1" height="1080" fill="#D9D9D9"/>
<rect opacity="0.6" x="72" y="-3.05176e-05" width="1" height="1080" fill="#D9D9D9"/>
<rect opacity="0.6" x="108" y="-3.05176e-05" width="1" height="1080" fill="#D9D9D9"/>
<rect opacity="0.6" x="144" y="-3.05176e-05" width="1" height="1080" fill="#D9D9D9"/>
<rect opacity="0.6" x="180" y="-3.05176e-05" width="1" height="1080" fill="#D9D9D9"/>
<rect opacity="0.6" x="216" y="-3.05176e-05" width="1" height="1080" fill="#D9D9D9"/>
<rect opacity="0.6" x="252" y="-3.05176e-05" width="1" height="1080" fill="#D9D9D9"/>
<rect opacity="0.6" x="288" y="-3.05176e-05" width="1" height="1080" fill="#D9D9D9"/>
<rect opacity="0.6" x="324" y="-3.05176e-05" width="1" height="1080" fill="#D9D9D9"/>
<rect opacity="0.6" x="360" y="-3.05176e-05" width="1" height="1080" fill="#D9D9D9"/>
<rect opacity="0.6" x="396" y="-3.05176e-05" width="1" height="1080" fill="#D9D9D9"/>
<rect opacity="0.6" x="432" y="-3.05176e-05" width="1" height="1080" fill="#D9D9D9"/>
<rect opacity="0.6" x="468" y="-3.05176e-05" width="1" height="1080" fill="#D9D9D9"/>
<rect opacity="0.6" x="504" y="-3.05176e-05" width="1" height="1080" fill="#D9D9D9"/>
<rect opacity="0.6" x="540" y="-3.05176e-05" width="1" height="1080" fill="#D9D9D9"/>
<rect opacity="0.6" x="576" y="-3.05176e-05" width="1" height="1080" fill="#D9D9D9"/>
<rect opacity="0.6" x="612" y="-3.05176e-05" width="1" height="1080" fill="#D9D9D9"/>
<rect opacity="0.6" x="648" y="-3.05176e-05" width="1" height="1080" fill="#D9D9D9"/>
<rect opacity="0.6" x="684" y="-3.05176e-05" width="1" height="1080" fill="#D9D9D9"/>
<rect opacity="0.6" x="720" y="-3.05176e-05" width="1" height="1080" fill="#D9D9D9"/>
<rect opacity="0.6" x="756" y="-3.05176e-05" width="1" height="1080" fill="#D9D9D9"/>
<rect opacity="0.6" x="792" y="-3.05176e-05" width="1" height="1080" fill="#D9D9D9"/>
<rect opacity="0.6" x="828" y="-3.05176e-05" width="1" height="1080" fill="#D9D9D9"/>
<rect opacity="0.6" x="864" y="-3.05176e-05" width="1" height="1080" fill="#D9D9D9"/>
<rect opacity="0.6" x="900" y="-3.05176e-05" width="1" height="1080" fill="#D9D9D9"/>
<rect opacity="0.6" x="936" y="-3.05176e-05" width="1" height="1080" fill="#D9D9D9"/>
<rect opacity="0.6" x="972" y="-3.05176e-05" width="1" height="1080" fill="#D9D9D9"/>
<rect opacity="0.6" x="1008" y="-3.05176e-05" width="1" height="1080" fill="#D9D9D9"/>
<rect opacity="0.6" x="1044" y="-3.05176e-05" width="1" height="1080" fill="#D9D9D9"/>
<rect opacity="0.6" x="1080" y="-3.05176e-05" width="1" height="1080" fill="#D9D9D9"/>
<rect opacity="0.6" x="1116" y="-3.05176e-05" width="1" height="1080" fill="#D9D9D9"/>
<rect opacity="0.6" x="1152" y="-3.05176e-05" width="1" height="1080" fill="#D9D9D9"/>
<rect opacity="0.6" x="1188" y="-3.05176e-05" width="1" height="1080" fill="#D9D9D9"/>
<rect opacity="0.6" x="1224" y="-3.05176e-05" width="1" height="1080" fill="#D9D9D9"/>
<rect opacity="0.6" x="1260" y="-3.05176e-05" width="1" height="1080" fill="#D9D9D9"/>
<rect opacity="0.6" x="1296" y="-3.05176e-05" width="1" height="1080" fill="#D9D9D9"/>
<rect opacity="0.6" x="1332" y="-3.05176e-05" width="1" height="1080" fill="#D9D9D9"/>
<rect opacity="0.6" x="1368" y="-3.05176e-05" width="1" height="1080" fill="#D9D9D9"/>
<rect opacity="0.6" x="1404" y="-3.05176e-05" width="1" height="1080" fill="#D9D9D9"/>
<rect opacity="0.6" x="1440" y="-3.05176e-05" width="1" height="1080" fill="#D9D9D9"/>
<rect opacity="0.6" x="1476" y="-3.05176e-05" width="1" height="1080" fill="#D9D9D9"/>
<rect opacity="0.6" x="1512" y="-3.05176e-05" width="1" height="1080" fill="#D9D9D9"/>
<rect opacity="0.6" x="1548" y="-3.05176e-05" width="1" height="1080" fill="#D9D9D9"/>
<rect opacity="0.6" x="1584" y="-3.05176e-05" width="1" height="1080" fill="#D9D9D9"/>
<rect opacity="0.6" x="1620" y="-3.05176e-05" width="1" height="1080" fill="#D9D9D9"/>
<rect opacity="0.6" x="1656" y="-3.05176e-05" width="1" height="1080" fill="#D9D9D9"/>
<rect opacity="0.6" x="1692" y="-3.05176e-05" width="1" height="1080" fill="#D9D9D9"/>
<rect opacity="0.6" x="1728" y="-3.05176e-05" width="1" height="1080" fill="#D9D9D9"/>
<rect opacity="0.6" x="1764" y="-3.05176e-05" width="1" height="1080" fill="#D9D9D9"/>
<rect opacity="0.6" x="1800" y="-3.05176e-05" width="1" height="1080" fill="#D9D9D9"/>
<rect opacity="0.6" x="1836" y="-3.05176e-05" width="1" height="1080" fill="#D9D9D9"/>
<rect opacity="0.6" x="1872" y="-3.05176e-05" width="1" height="1080" fill="#D9D9D9"/>
<rect opacity="0.6" x="1908" y="-3.05176e-05" width="1" height="1080" fill="#D9D9D9"/>
<rect opacity="0.6" x="1920" y="16.4999" width="1" height="1919" transform="rotate(90 1920 16.4999)" fill="#D9D9D9"/>
<rect opacity="0.6" x="1920" y="52.4999" width="1" height="1919" transform="rotate(90 1920 52.4999)" fill="#D9D9D9"/>
<rect opacity="0.6" x="1920" y="88.4999" width="1" height="1919" transform="rotate(90 1920 88.4999)" fill="#D9D9D9"/>
<rect opacity="0.6" x="1920" y="124.5" width="1" height="1919" transform="rotate(90 1920 124.5)" fill="#D9D9D9"/>
<rect opacity="0.6" x="1920" y="160.5" width="1" height="1919" transform="rotate(90 1920 160.5)" fill="#D9D9D9"/>
<rect opacity="0.6" x="1920" y="196.5" width="1" height="1919" transform="rotate(90 1920 196.5)" fill="#D9D9D9"/>
<rect opacity="0.6" x="1920" y="232.5" width="1" height="1919" transform="rotate(90 1920 232.5)" fill="#D9D9D9"/>
<rect opacity="0.6" x="1920" y="268.5" width="1" height="1919" transform="rotate(90 1920 268.5)" fill="#D9D9D9"/>
<rect opacity="0.6" x="1920" y="304.5" width="1" height="1919" transform="rotate(90 1920 304.5)" fill="#D9D9D9"/>
<rect opacity="0.6" x="1920" y="340.5" width="1" height="1919" transform="rotate(90 1920 340.5)" fill="#D9D9D9"/>
<rect opacity="0.6" x="1920" y="376.5" width="1" height="1919" transform="rotate(90 1920 376.5)" fill="#D9D9D9"/>
<rect opacity="0.6" x="1920" y="412.5" width="1" height="1919" transform="rotate(90 1920 412.5)" fill="#D9D9D9"/>
<rect opacity="0.6" x="1920" y="448.5" width="1" height="1919" transform="rotate(90 1920 448.5)" fill="#D9D9D9"/>
<rect opacity="0.6" x="1920" y="484.5" width="1" height="1919" transform="rotate(90 1920 484.5)" fill="#D9D9D9"/>
<rect opacity="0.6" x="1920" y="520.5" width="1" height="1919" transform="rotate(90 1920 520.5)" fill="#D9D9D9"/>
<rect opacity="0.6" x="1920" y="556.5" width="1" height="1919" transform="rotate(90 1920 556.5)" fill="#D9D9D9"/>
<rect opacity="0.6" x="1920" y="592.5" width="1" height="1919" transform="rotate(90 1920 592.5)" fill="#D9D9D9"/>
<rect opacity="0.6" x="1920" y="628.5" width="1" height="1919" transform="rotate(90 1920 628.5)" fill="#D9D9D9"/>
<rect opacity="0.6" x="1920" y="664.5" width="1" height="1919" transform="rotate(90 1920 664.5)" fill="#D9D9D9"/>
<rect opacity="0.6" x="1920" y="700.5" width="1" height="1919" transform="rotate(90 1920 700.5)" fill="#D9D9D9"/>
<rect opacity="0.6" x="1920" y="736.5" width="1" height="1919" transform="rotate(90 1920 736.5)" fill="#D9D9D9"/>
<rect opacity="0.6" x="1920" y="772.5" width="1" height="1919" transform="rotate(90 1920 772.5)" fill="#D9D9D9"/>
<rect opacity="0.6" x="1920" y="808.5" width="1" height="1919" transform="rotate(90 1920 808.5)" fill="#D9D9D9"/>
<rect opacity="0.6" x="1920" y="844.5" width="1" height="1919" transform="rotate(90 1920 844.5)" fill="#D9D9D9"/>
<rect opacity="0.6" x="1920" y="880.5" width="1" height="1919" transform="rotate(90 1920 880.5)" fill="#D9D9D9"/>
<rect opacity="0.6" x="1920" y="916.5" width="1" height="1919" transform="rotate(90 1920 916.5)" fill="#D9D9D9"/>
<rect opacity="0.6" x="1920" y="952.5" width="1" height="1919" transform="rotate(90 1920 952.5)" fill="#D9D9D9"/>
<rect opacity="0.6" x="1920" y="988.5" width="1" height="1919" transform="rotate(90 1920 988.5)" fill="#D9D9D9"/>
<rect opacity="0.6" x="1920" y="1024.5" width="1" height="1919" transform="rotate(90 1920 1024.5)" fill="#D9D9D9"/>
<rect opacity="0.6" x="1920" y="1060.5" width="1" height="1919" transform="rotate(90 1920 1060.5)" fill="#D9D9D9"/>
</svg>
