<svg width="31" height="30" viewBox="0 0 31 30" fill="none" xmlns="http://www.w3.org/2000/svg">
<path fill-rule="evenodd" clip-rule="evenodd" d="M11.7242 10.4536H17.2957V13.2291C18.098 11.633 20.1568 10.1982 23.2477 10.1982C29.174 10.1982 30.5815 13.3748 30.5815 19.2051V30H24.5814V20.5319C24.5814 17.2131 23.7791 15.3411 21.7357 15.3411C18.902 15.3411 17.7242 17.3588 17.7242 20.5302V30H11.7242V10.4536ZM1.43845 29.7429H7.43848V10.1999H1.43845V29.7463V29.7429ZM8.29562 3.82443C8.29585 4.32743 8.19609 4.82546 8.00215 5.28957C7.80821 5.75367 7.52396 6.1746 7.1659 6.52788C6.43896 7.24512 5.45882 7.64725 4.4376 7.64725C3.41639 7.64725 2.43625 7.24512 1.7093 6.52788C1.35299 6.17375 1.06997 5.75286 0.876414 5.28928C0.682863 4.8257 0.58258 4.32851 0.581299 3.82615C0.581299 2.81129 0.985872 1.83757 1.71102 1.12271C2.43659 0.403509 3.41685 0 4.43846 0C5.46007 0 6.44034 0.403509 7.1659 1.12271C7.88934 1.83928 8.29734 2.81129 8.29734 3.82615L8.29562 3.82443Z" fill="black"/>
</svg>
