<svg xmlns="http://www.w3.org/2000/svg" viewBox="0 0 229.05 229.05"><defs><style>.cls-1{fill:#161b21;}.cls-2{fill:#fff;}</style></defs><g id="Layer_2" data-name="Layer 2"><g id="Layer_1-2" data-name="Layer 1"><circle class="cls-1" cx="114.52" cy="114.52" r="114.52"/><path class="cls-2" d="M163.36,104.87V29.09h-11.1V110h-.1a37.71,37.71,0,1,1-11-28.65V66.89A49,49,0,1,0,163.46,108C163.46,106.93,163.42,105.89,163.36,104.87Z"/><path class="cls-2" d="M151.27,159.78a37.73,37.73,0,0,1-36.68,28.93,38.22,38.22,0,0,1-4.69-.29v11.32c1.55.14,3.11.22,4.69.22a49,49,0,0,0,48.18-40.18Z"/></g></g></svg>