<svg width="38" height="30" viewBox="0 0 38 30" fill="none" xmlns="http://www.w3.org/2000/svg">
<path d="M37.5107 3.56278C36.1243 4.16872 34.655 4.56391 33.1517 4.73522C34.7322 3.79639 35.9157 2.31301 36.48 0.563518C34.9974 1.44568 33.3732 2.06437 31.6794 2.39216C30.9714 1.63508 30.115 1.03196 29.1637 0.620401C28.2123 0.208839 27.1864 -0.00234332 26.1498 1.9612e-05C25.1557 -0.000219502 24.1713 0.19547 23.2528 0.575902C22.3344 0.956334 21.4999 1.51405 20.7972 2.21716C20.0944 2.92028 19.5371 3.75501 19.1571 4.67364C18.7771 5.59226 18.5819 6.57678 18.5826 7.57089C18.5826 8.1562 18.6553 8.74333 18.7698 9.30683C15.7587 9.15419 12.8133 8.37005 10.1249 7.00532C7.43641 5.64058 5.065 3.72576 3.16455 1.38514C2.48577 2.5438 2.12988 3.86318 2.13389 5.20602C2.13389 7.83265 3.46993 10.1503 5.50761 11.5117C4.30737 11.4642 3.13529 11.1341 2.08663 10.5483V10.6411C2.08413 12.3894 2.68695 14.0847 3.7927 15.4389C4.89844 16.7932 6.43891 17.7229 8.15242 18.0701C7.50167 18.2392 6.83274 18.3264 6.16018 18.3283C5.66757 18.3283 5.20223 18.2792 4.73144 18.2137C5.21664 19.7165 6.15906 21.0302 7.42708 21.9713C8.6951 22.9125 10.2254 23.4341 11.8042 23.4634C9.12499 25.566 5.816 26.7057 2.41019 26.6989C1.77398 26.6989 1.18867 26.6753 0.581543 26.6044C4.04873 28.8301 8.08407 30.009 12.2042 29.9999C26.1207 29.9999 33.7371 18.47 33.7371 8.4634C33.7371 8.13621 33.7371 7.80538 33.7152 7.47819C35.1907 6.39534 36.4732 5.07168 37.5089 3.56278H37.5107Z" fill="black"/>
</svg>
